<svg width="20" height="20" viewBox="0 0 20 20" fill="none" xmlns="http://www.w3.org/2000/svg">
<path fill-rule="evenodd" clip-rule="evenodd" d="M19 18V9.00001C19.2652 9.00001 19.5196 8.89465 19.7071 8.70711C19.8946 8.51958 20 8.26522 20 8.00001C20 7.73479 19.8946 7.48044 19.7071 7.2929C19.5196 7.10536 19.2652 7.00001 19 7.00001H1C0.734784 7.00001 0.48043 7.10536 0.292893 7.2929C0.105357 7.48044 0 7.73479 0 8.00001C0 8.26522 0.105357 8.51958 0.292893 8.70711C0.48043 8.89465 0.734784 9.00001 1 9.00001V18C0.734784 18 0.48043 18.1054 0.292893 18.2929C0.105357 18.4804 0 18.7348 0 19C0 19.2652 0.105357 19.5196 0.292893 19.7071C0.48043 19.8946 0.734784 20 1 20H19C19.2652 20 19.5196 19.8946 19.7071 19.7071C19.8946 19.5196 20 19.2652 20 19C20 18.7348 19.8946 18.4804 19.7071 18.2929C19.5196 18.1054 19.2652 18 19 18ZM3.394 4.91801C3.15106 5.01809 2.87849 5.01853 2.63522 4.91925C2.39195 4.81996 2.19754 4.62892 2.094 4.38743C1.99047 4.14594 1.98614 3.8734 2.08195 3.62875C2.17776 3.38409 2.36601 3.18697 2.606 3.08001L9.606 0.0800059C9.858 -0.0269941 10.142 -0.0269941 10.394 0.0800059L17.394 3.08001C17.634 3.18697 17.8222 3.38409 17.9181 3.62875C18.0139 3.8734 18.0095 4.14594 17.906 4.38743C17.8025 4.62892 17.608 4.81996 17.3648 4.91925C17.1215 5.01853 16.8489 5.01809 16.606 4.91801L10 2.08801L3.394 4.91801ZM3 18H17V9.00001H3V18ZM10 11C9.73478 11 9.48043 11.1054 9.29289 11.2929C9.10536 11.4804 9 11.7348 9 12V15C9 15.2652 9.10536 15.5196 9.29289 15.7071C9.48043 15.8946 9.73478 16 10 16C10.2652 16 10.5196 15.8946 10.7071 15.7071C10.8946 15.5196 11 15.2652 11 15V12C11 11.7348 10.8946 11.4804 10.7071 11.2929C10.5196 11.1054 10.2652 11 10 11ZM14 11C13.7348 11 13.4804 11.1054 13.2929 11.2929C13.1054 11.4804 13 11.7348 13 12V15C13 15.2652 13.1054 15.5196 13.2929 15.7071C13.4804 15.8946 13.7348 16 14 16C14.2652 16 14.5196 15.8946 14.7071 15.7071C14.8946 15.5196 15 15.2652 15 15V12C15 11.7348 14.8946 11.4804 14.7071 11.2929C14.5196 11.1054 14.2652 11 14 11ZM6 11C5.73478 11 5.48043 11.1054 5.29289 11.2929C5.10536 11.4804 5 11.7348 5 12V15C5 15.2652 5.10536 15.5196 5.29289 15.7071C5.48043 15.8946 5.73478 16 6 16C6.26522 16 6.51957 15.8946 6.70711 15.7071C6.89464 15.5196 7 15.2652 7 15V12C7 11.7348 6.89464 11.4804 6.70711 11.2929C6.51957 11.1054 6.26522 11 6 11Z" fill="#B78734"/>
</svg>
