<svg width="20" height="20" viewBox="0 0 20 20" fill="none" xmlns="http://www.w3.org/2000/svg">
<path d="M18.0111 18.035C13.1551 18.135 9.32908 16.789 6.61608 14.081C2.67508 10.148 2.08608 4.277 2.01308 2.001H6.19008L6.87308 5.447L5.55508 6.107C5.16108 6.304 4.94208 6.737 5.01608 7.171L5.01508 7.165C5.40208 9.485 7.53308 14.103 12.8371 14.987C13.2651 15.054 13.6971 14.842 13.8941 14.451L14.5601 13.131L18.0101 13.821V18.035H18.0111ZM19.2071 12.02L14.2071 11.02C13.9934 10.9763 13.7713 11.004 13.5749 11.0988C13.3785 11.1937 13.2187 11.3505 13.1201 11.545L13.1171 11.551L12.4541 12.864C8.89208 11.939 7.58408 8.924 7.16308 7.538L8.44808 6.895C8.64528 6.79658 8.80444 6.63578 8.90083 6.43758C8.99722 6.23938 9.02543 6.01489 8.98108 5.799L8.98208 5.805L7.99008 0.805C7.94502 0.578374 7.82287 0.374344 7.6444 0.22759C7.46593 0.0808368 7.24214 0.000416868 7.01108 1.32992e-07H1.01008C0.754558 -0.000131631 0.508701 0.0976511 0.32307 0.273238C0.137438 0.448826 0.0261443 0.688869 0.0120767 0.944V0.947C-0.00692328 1.31 -0.390924 9.9 5.19308 15.485C8.21808 18.51 12.3821 20.038 17.5871 20.038C18.0711 20.038 18.5631 20.025 19.0641 19.999C19.3198 19.9854 19.5606 19.8742 19.7368 19.6884C19.913 19.5025 20.0112 19.2561 20.0111 19V13C20.011 12.7699 19.9316 12.5469 19.7862 12.3686C19.6408 12.1902 19.4384 12.0675 19.2131 12.021L19.2071 12.02Z" fill="#B78734"/>
</svg>
